<svg xmlns="http://www.w3.org/2000/svg" xmlns:xlink="http://www.w3.org/1999/xlink" contentStyleType="text/css" height="455px" preserveAspectRatio="none" style="width:1147px;height:455px;background:#FFFFFF;" version="1.1" viewBox="0 0 1147 455" width="1147px" zoomAndPan="magnify"><defs/><g><rect fill="#F1F1F1" height="47.9375" rx="12.5" ry="12.5" style="stroke:#181818;stroke-width:0.5;" width="131" x="502" y="11"/><text fill="#000000" font-family="sans-serif" font-size="12" lengthAdjust="spacing" textLength="107" x="512" y="32.1387">getRemoteFiles()</text><text fill="#000000" font-family="sans-serif" font-size="12" lengthAdjust="spacing" textLength="91" x="512" y="46.1074">getLocalFiles()</text><rect fill="#F1F1F1" height="33.9688" rx="12.5" ry="12.5" style="stroke:#181818;stroke-width:0.5;" width="192" x="471.5" y="122.9375"/><text fill="#000000" font-family="sans-serif" font-size="12" lengthAdjust="spacing" textLength="172" x="481.5" y="144.0762">Zeitunterschied berechnen</text><ellipse cx="567.5" cy="186.9063" fill="#222222" rx="10" ry="10" style="stroke:#222222;stroke-width:1.0;"/><polygon fill="#F1F1F1" points="32,216.9063,162,216.9063,174,228.9063,162,240.9063,32,240.9063,20,228.9063,32,216.9063" style="stroke:#181818;stroke-width:0.5;"/><text fill="#000000" font-family="sans-serif" font-size="11" lengthAdjust="spacing" textLength="10" x="101" y="251.1167">Ja</text><text fill="#000000" font-family="sans-serif" font-size="11" lengthAdjust="spacing" textLength="130" x="32" y="232.7144">Lokale Dateien veraltet</text><rect fill="#F1F1F1" height="47.9375" rx="12.5" ry="12.5" style="stroke:#181818;stroke-width:0.5;" width="129" x="32.5" y="273.7109"/><text fill="#000000" font-family="sans-serif" font-size="12" lengthAdjust="spacing" textLength="105" x="42.5" y="294.8496">syncToDesktop()</text><text fill="#000000" font-family="sans-serif" font-size="12" lengthAdjust="spacing" textLength="81" x="42.5" y="308.8184">getLocalFiles</text><polygon fill="#F1F1F1" points="206,216.9063,333,216.9063,345,228.9063,333,240.9063,206,240.9063,194,228.9063,206,216.9063" style="stroke:#181818;stroke-width:0.5;"/><text fill="#000000" font-family="sans-serif" font-size="11" lengthAdjust="spacing" textLength="10" x="273.5" y="251.1167">Ja</text><text fill="#000000" font-family="sans-serif" font-size="11" lengthAdjust="spacing" textLength="127" x="206" y="232.7144">Serverdateien veraltet</text><rect fill="#F1F1F1" height="47.9375" rx="12.5" ry="12.5" style="stroke:#181818;stroke-width:0.5;" width="127" x="206" y="273.7109"/><text fill="#000000" font-family="sans-serif" font-size="12" lengthAdjust="spacing" textLength="88" x="216" y="294.8496">syncToCloud()</text><text fill="#000000" font-family="sans-serif" font-size="12" lengthAdjust="spacing" textLength="107" x="216" y="308.8184">getRemoteFiles()</text><polygon fill="#F1F1F1" points="377,216.9063,565,216.9063,577,228.9063,565,240.9063,377,240.9063,365,228.9063,377,216.9063" style="stroke:#181818;stroke-width:0.5;"/><text fill="#000000" font-family="sans-serif" font-size="11" lengthAdjust="spacing" textLength="10" x="475" y="251.1167">Ja</text><text fill="#000000" font-family="sans-serif" font-size="11" lengthAdjust="spacing" textLength="188" x="377" y="232.7144">Lokal Ver&#228;nderungen festgestellt</text><rect fill="#F1F1F1" height="47.9375" rx="12.5" ry="12.5" style="stroke:#181818;stroke-width:0.5;" width="129" x="406.5" y="273.7109"/><text fill="#000000" font-family="sans-serif" font-size="12" lengthAdjust="spacing" textLength="105" x="416.5" y="294.8496">syncToDesktop()</text><text fill="#000000" font-family="sans-serif" font-size="12" lengthAdjust="spacing" textLength="91" x="416.5" y="308.8184">getLocalFiles()</text><polygon fill="#F1F1F1" points="609,216.9063,827,216.9063,839,228.9063,827,240.9063,609,240.9063,597,228.9063,609,216.9063" style="stroke:#181818;stroke-width:0.5;"/><text fill="#000000" font-family="sans-serif" font-size="11" lengthAdjust="spacing" textLength="10" x="722" y="251.1167">Ja</text><text fill="#000000" font-family="sans-serif" font-size="11" lengthAdjust="spacing" textLength="218" x="609" y="232.7144">Ver&#228;nderungen bei Server festgestellt</text><rect fill="#F1F1F1" height="47.9375" rx="12.5" ry="12.5" style="stroke:#181818;stroke-width:0.5;" width="127" x="654.5" y="273.7109"/><text fill="#000000" font-family="sans-serif" font-size="12" lengthAdjust="spacing" textLength="88" x="664.5" y="294.8496">syncToCloud()</text><text fill="#000000" font-family="sans-serif" font-size="12" lengthAdjust="spacing" textLength="107" x="664.5" y="308.8184">getRemoteFiles()</text><polygon fill="#F1F1F1" points="871,216.9063,970,216.9063,982,228.9063,970,240.9063,871,240.9063,859,228.9063,871,216.9063" style="stroke:#181818;stroke-width:0.5;"/><text fill="#000000" font-family="sans-serif" font-size="11" lengthAdjust="spacing" textLength="10" x="924.5" y="251.1167">Ja</text><text fill="#000000" font-family="sans-serif" font-size="11" lengthAdjust="spacing" textLength="99" x="871" y="232.7144">Dateien synchron</text><text fill="#000000" font-family="sans-serif" font-size="11" lengthAdjust="spacing" textLength="4" x="982" y="226.312">&#160;</text><rect fill="#F1F1F1" height="33.9688" rx="12.5" ry="12.5" style="stroke:#181818;stroke-width:0.5;" width="116" x="862.5" y="273.7109"/><text fill="#000000" font-family="sans-serif" font-size="12" lengthAdjust="spacing" textLength="96" x="872.5" y="294.8496">print(synchron)</text><rect fill="#F1F1F1" height="33.9688" rx="12.5" ry="12.5" style="stroke:#181818;stroke-width:0.5;" width="113" x="996" y="277.293"/><text fill="#000000" font-family="sans-serif" font-size="12" lengthAdjust="spacing" textLength="93" x="1006" y="298.4316">Interner Fehler</text><rect fill="#F1F1F1" height="33.9688" rx="12.5" ry="12.5" style="stroke:#181818;stroke-width:0.5;" width="74" x="530.5" y="361.6484"/><text fill="#000000" font-family="sans-serif" font-size="12" lengthAdjust="spacing" textLength="54" x="540.5" y="382.7871">sleep 10</text><polygon fill="#F1F1F1" points="567.5,78.9375,579.5,90.9375,567.5,102.9375,555.5,90.9375,567.5,78.9375" style="stroke:#181818;stroke-width:0.5;"/><line style="stroke:#181818;stroke-width:1.0;" x1="567.5" x2="567.5" y1="156.9063" y2="176.9063"/><polygon fill="#181818" points="563.5,166.9063,567.5,176.9063,571.5,166.9063,567.5,170.9063" style="stroke:#181818;stroke-width:1.0;"/><line style="stroke:#181818;stroke-width:1.0;" x1="97" x2="97" y1="240.9063" y2="273.7109"/><polygon fill="#181818" points="93,263.7109,97,273.7109,101,263.7109,97,267.7109" style="stroke:#181818;stroke-width:1.0;"/><line style="stroke:#181818;stroke-width:1.0;" x1="97" x2="97" y1="321.6484" y2="341.6484"/><polygon fill="#181818" points="93,331.6484,97,341.6484,101,331.6484,97,335.6484" style="stroke:#181818;stroke-width:1.0;"/><line style="stroke:#181818;stroke-width:1.0;" x1="269.5" x2="269.5" y1="240.9063" y2="273.7109"/><polygon fill="#181818" points="265.5,263.7109,269.5,273.7109,273.5,263.7109,269.5,267.7109" style="stroke:#181818;stroke-width:1.0;"/><line style="stroke:#181818;stroke-width:1.0;" x1="269.5" x2="269.5" y1="321.6484" y2="341.6484"/><polygon fill="#181818" points="265.5,331.6484,269.5,341.6484,273.5,331.6484,269.5,335.6484" style="stroke:#181818;stroke-width:1.0;"/><line style="stroke:#181818;stroke-width:1.0;" x1="471" x2="471" y1="240.9063" y2="273.7109"/><polygon fill="#181818" points="467,263.7109,471,273.7109,475,263.7109,471,267.7109" style="stroke:#181818;stroke-width:1.0;"/><line style="stroke:#181818;stroke-width:1.0;" x1="471" x2="471" y1="321.6484" y2="341.6484"/><polygon fill="#181818" points="467,331.6484,471,341.6484,475,331.6484,471,335.6484" style="stroke:#181818;stroke-width:1.0;"/><line style="stroke:#181818;stroke-width:1.0;" x1="718" x2="718" y1="240.9063" y2="273.7109"/><polygon fill="#181818" points="714,263.7109,718,273.7109,722,263.7109,718,267.7109" style="stroke:#181818;stroke-width:1.0;"/><line style="stroke:#181818;stroke-width:1.0;" x1="718" x2="718" y1="321.6484" y2="341.6484"/><polygon fill="#181818" points="714,331.6484,718,341.6484,722,331.6484,718,335.6484" style="stroke:#181818;stroke-width:1.0;"/><line style="stroke:#181818;stroke-width:1.0;" x1="920.5" x2="920.5" y1="240.9063" y2="273.7109"/><polygon fill="#181818" points="916.5,263.7109,920.5,273.7109,924.5,263.7109,920.5,267.7109" style="stroke:#181818;stroke-width:1.0;"/><line style="stroke:#181818;stroke-width:1.0;" x1="920.5" x2="920.5" y1="307.6797" y2="341.6484"/><polygon fill="#181818" points="916.5,331.6484,920.5,341.6484,924.5,331.6484,920.5,335.6484" style="stroke:#181818;stroke-width:1.0;"/><line style="stroke:#181818;stroke-width:1.0;" x1="174" x2="194" y1="228.9063" y2="228.9063"/><polygon fill="#181818" points="184,224.9063,194,228.9063,184,232.9063,188,228.9063" style="stroke:#181818;stroke-width:1.0;"/><line style="stroke:#181818;stroke-width:1.0;" x1="345" x2="365" y1="228.9063" y2="228.9063"/><polygon fill="#181818" points="355,224.9063,365,228.9063,355,232.9063,359,228.9063" style="stroke:#181818;stroke-width:1.0;"/><line style="stroke:#181818;stroke-width:1.0;" x1="577" x2="597" y1="228.9063" y2="228.9063"/><polygon fill="#181818" points="587,224.9063,597,228.9063,587,232.9063,591,228.9063" style="stroke:#181818;stroke-width:1.0;"/><line style="stroke:#181818;stroke-width:1.0;" x1="839" x2="859" y1="228.9063" y2="228.9063"/><polygon fill="#181818" points="849,224.9063,859,228.9063,849,232.9063,853,228.9063" style="stroke:#181818;stroke-width:1.0;"/><line style="stroke:#181818;stroke-width:1.0;" x1="567.5" x2="567.5" y1="196.9063" y2="201.9063"/><line style="stroke:#181818;stroke-width:1.0;" x1="567.5" x2="97" y1="201.9063" y2="201.9063"/><line style="stroke:#181818;stroke-width:1.0;" x1="97" x2="97" y1="201.9063" y2="216.9063"/><polygon fill="#181818" points="93,206.9063,97,216.9063,101,206.9063,97,210.9063" style="stroke:#181818;stroke-width:1.0;"/><line style="stroke:#181818;stroke-width:1.0;" x1="982" x2="1052.5" y1="228.9063" y2="228.9063"/><line style="stroke:#181818;stroke-width:1.0;" x1="1052.5" x2="1052.5" y1="228.9063" y2="277.293"/><polygon fill="#181818" points="1048.5,267.293,1052.5,277.293,1056.5,267.293,1052.5,271.293" style="stroke:#181818;stroke-width:1.0;"/><line style="stroke:#181818;stroke-width:1.0;" x1="1052.5" x2="1052.5" y1="311.2617" y2="341.6484"/><polygon fill="#181818" points="1048.5,331.6484,1052.5,341.6484,1056.5,331.6484,1052.5,335.6484" style="stroke:#181818;stroke-width:1.0;"/><line style="stroke:#181818;stroke-width:1.0;" x1="97" x2="1052.5" y1="341.6484" y2="341.6484"/><line style="stroke:#181818;stroke-width:1.0;" x1="567.5" x2="567.5" y1="341.6484" y2="361.6484"/><polygon fill="#181818" points="563.5,351.6484,567.5,361.6484,571.5,351.6484,567.5,355.6484" style="stroke:#181818;stroke-width:1.0;"/><line style="stroke:#181818;stroke-width:1.0;" x1="567.5" x2="567.5" y1="102.9375" y2="122.9375"/><polygon fill="#181818" points="563.5,112.9375,567.5,122.9375,571.5,112.9375,567.5,116.9375" style="stroke:#181818;stroke-width:1.0;"/><line style="stroke:#181818;stroke-width:1.0;" x1="567.5" x2="567.5" y1="395.6172" y2="443.6172"/><line style="stroke:#181818;stroke-width:1.0;" x1="567.5" x2="1121" y1="443.6172" y2="443.6172"/><polygon fill="#181818" points="1117,270.7773,1121,260.7773,1125,270.7773,1121,266.7773" style="stroke:#181818;stroke-width:1.0;"/><line style="stroke:#181818;stroke-width:1.0;" x1="1121" x2="1121" y1="90.9375" y2="443.6172"/><line style="stroke:#181818;stroke-width:1.0;" x1="1121" x2="579.5" y1="90.9375" y2="90.9375"/><polygon fill="#181818" points="589.5,86.9375,579.5,90.9375,589.5,94.9375,585.5,90.9375" style="stroke:#181818;stroke-width:1.0;"/><line style="stroke:#181818;stroke-width:1.0;" x1="567.5" x2="567.5" y1="58.9375" y2="78.9375"/><polygon fill="#181818" points="563.5,68.9375,567.5,78.9375,571.5,68.9375,567.5,72.9375" style="stroke:#181818;stroke-width:1.0;"/><!--SRC=[dPB1JiCm38RlVGfpeht1TJqoJHhQQI0EY4lM_csYPKxbk4Yy3s_2Yv6s6x31eI9I3h7_VBzjUT52jpW4nSfvnBoW5qwXJQYCFqRAB1DqC9fHEejdEErP8R6o3ZNj8AWiWyinVqrNdPZsOAYFU8AeIwHrGu77T5GZ4yWrb6_2tdZGqYWSc5uXnYkq8BNfcT-ROfIEll6DgyUmHDnhw7xNERd3HmpW1qY2rVEvTpxqzObwDf1py5WnfRu-thc6z4dEr21gcowy_rVjboON-1qSJGtDTPhRpMdmmoyhWVz4Tk9Oyo_9Du7o7whri1ASIbp1UiXHnRLhfhM97kZezgRy1000]--></g></svg>